<svg xmlns="http://www.w3.org/2000/svg" viewBox="0 0 1504.92 1218.88"><defs><style>.cls-1{fill:#dedede;}.cls-2{fill:#f2f2f2;}.cls-3{fill:#4e8b43;}.cls-4{fill:#9c9c9c;}.cls-5{fill:#5e5e5e;}.cls-6{fill:#b8b8b8;}.cls-7{fill:#fff;}</style></defs><g id="Layer_2" data-name="Layer 2"><g id="_ëîé_1" data-name="‘ëîé_1"><path class="cls-1" d="M1184.88,948.8a2.39,2.39,0,0,0-3.29-.85l-8,4.71-4.71-8a2.4,2.4,0,0,0-4.13,2.45l4.71,8-8,4.71a2.35,2.35,0,0,0-1.1,1.47,2.39,2.39,0,0,0,3.54,2.66l8-4.71,4.7,8a2.41,2.41,0,0,0,2.54,1.13,2.16,2.16,0,0,0,.75-.29,2.4,2.4,0,0,0,.85-3.28l-4.71-8,8-4.71A2.4,2.4,0,0,0,1184.88,948.8Z"/><path class="cls-1" d="M1205.07,1001.53a10.46,10.46,0,1,1,10.46-10.46A10.47,10.47,0,0,1,1205.07,1001.53Zm0-15.32a4.87,4.87,0,1,0,4.87,4.86A4.87,4.87,0,0,0,1205.07,986.21Z"/><path class="cls-1" d="M148.84,1155a10.46,10.46,0,1,1,10.45-10.46A10.47,10.47,0,0,1,148.84,1155Zm0-15.33a4.87,4.87,0,1,0,4.87,4.87A4.88,4.88,0,0,0,148.84,1139.68Z"/><path class="cls-1" d="M1306.88,30.47A10.46,10.46,0,1,1,1317.34,20,10.46,10.46,0,0,1,1306.88,30.47Zm0-15.32a4.87,4.87,0,1,0,4.87,4.87A4.87,4.87,0,0,0,1306.88,15.15Z"/><path class="cls-1" d="M1485.89,295.32a2.41,2.41,0,0,0-1.1,3.21l4,8.32-8.32,4a2.38,2.38,0,0,0-1.1,3.21,2.34,2.34,0,0,0,1.37,1.21,2.37,2.37,0,0,0,1.83-.11l8.32-4,4,8.32a2.44,2.44,0,0,0,1.38,1.22,2.33,2.33,0,0,0,1.83-.12,2.39,2.39,0,0,0,1.11-3.2l-4-8.32,8.31-4.05a2.4,2.4,0,1,0-2.1-4.32l-8.32,4.05-4.05-8.31A2.41,2.41,0,0,0,1485.89,295.32Z"/><path class="cls-1" d="M1334.8,494.34a10.46,10.46,0,1,1,10.46-10.46A10.47,10.47,0,0,1,1334.8,494.34Zm0-15.33a4.87,4.87,0,1,0,4.87,4.87A4.87,4.87,0,0,0,1334.8,479Z"/><path class="cls-1" d="M1.28,640.13a2.4,2.4,0,0,0-.1,3.39l6.33,6.75L.76,656.6a2.4,2.4,0,0,0,1.56,4.15A2.39,2.39,0,0,0,4,660.1l6.75-6.33,6.33,6.75a2.36,2.36,0,0,0,1.67.75,2.42,2.42,0,0,0,1.72-.64,2.4,2.4,0,0,0,.11-3.4l-6.33-6.74L21,644.16a2.41,2.41,0,0,0,.55-2.72,2.27,2.27,0,0,0-.44-.68,2.41,2.41,0,0,0-3.4-.1L11,647l-6.33-6.74A2.4,2.4,0,0,0,1.28,640.13Z"/><path class="cls-1" d="M104.33,755.11a10.46,10.46,0,1,1,10.45-10.46A10.47,10.47,0,0,1,104.33,755.11Zm0-15.33a4.87,4.87,0,1,0,4.87,4.87A4.88,4.88,0,0,0,104.33,739.78Z"/><path class="cls-1" d="M284.37,1083.81a2.13,2.13,0,0,1-.12-4.25c7-.39,14.13-1.09,21.12-2.08a2.13,2.13,0,1,1,.59,4.21c-7.11,1-14.33,1.72-21.47,2.12Zm-29.93-.09h-.14c-7.14-.45-14.36-1.21-21.45-2.26a2.13,2.13,0,1,1,.63-4.21c7,1,14.06,1.78,21.09,2.22a2.13,2.13,0,0,1-.13,4.25Zm80.57-7.91a2.12,2.12,0,0,1-.53-4.18c6.82-1.79,13.64-3.89,20.26-6.24a2.13,2.13,0,1,1,1.43,4c-6.74,2.39-13.68,4.52-20.61,6.34A2.13,2.13,0,0,1,335,1075.81Zm-131.15-.49a1.81,1.81,0,0,1-.56-.08c-6.91-1.88-13.82-4.09-20.55-6.55a2.13,2.13,0,1,1,1.46-4c6.62,2.42,13.42,4.59,20.21,6.45a2.13,2.13,0,0,1-.56,4.18ZM383,1057.86a2.15,2.15,0,0,1-1.91-1.19,2.13,2.13,0,0,1,1-2.85c6.31-3.12,12.56-6.56,18.58-10.21a2.13,2.13,0,1,1,2.21,3.64c-6.12,3.71-12.48,7.21-18.9,10.38A2.18,2.18,0,0,1,383,1057.86Zm-227-1a2.09,2.09,0,0,1-1-.23c-6.38-3.24-12.71-6.79-18.81-10.55a2.13,2.13,0,1,1,2.24-3.62c6,3.7,12.22,7.19,18.5,10.38a2.13,2.13,0,0,1-1,4Zm270.36-26.31a2.13,2.13,0,0,1-1.31-3.8c5.55-4.34,11-9,16.14-13.76a2.13,2.13,0,0,1,2.9,3.12c-5.25,4.87-10.78,9.58-16.42,14A2.08,2.08,0,0,1,426.38,1030.56Zm-313.51-1.35a2.15,2.15,0,0,1-1.33-.46c-5.61-4.46-11.1-9.2-16.31-14.11a2.13,2.13,0,1,1,2.91-3.1c5.13,4.83,10.53,9.49,16,13.87a2.13,2.13,0,0,1-1.32,3.8Zm350.48-34.14a2.14,2.14,0,0,1-1.62-3.51c4.57-5.36,9-11,13.06-16.72a2.13,2.13,0,0,1,3.46,2.48c-4.17,5.82-8.63,11.54-13.27,17A2.11,2.11,0,0,1,463.35,995.07Zm-387.21-1.6a2.16,2.16,0,0,1-1.64-.76c-4.6-5.5-9-11.25-13.14-17.1a2.13,2.13,0,1,1,3.48-2.45c4,5.75,8.4,11.41,12.93,16.81a2.14,2.14,0,0,1-1.63,3.5Zm416.33-40.59a2.14,2.14,0,0,1-1.87-3.16c3.4-6.17,6.58-12.56,9.44-19a2.13,2.13,0,1,1,3.89,1.73c-2.91,6.54-6.14,13-9.6,19.31A2.11,2.11,0,0,1,492.47,952.88ZM47.36,951.05a2.12,2.12,0,0,1-1.87-1.12c-3.4-6.31-6.57-12.84-9.42-19.41A2.13,2.13,0,0,1,40,928.83c2.8,6.46,5.91,12.88,9.25,19.08a2.12,2.12,0,0,1-.86,2.88A2.06,2.06,0,0,1,47.36,951.05ZM512.54,905.7a2,2,0,0,1-.63-.1,2.13,2.13,0,0,1-1.4-2.66c2.08-6.73,3.91-13.63,5.42-20.51a2.12,2.12,0,0,1,4.15.91c-1.53,7-3.39,14-5.51,20.86A2.13,2.13,0,0,1,512.54,905.7Zm-484.77-2a2.13,2.13,0,0,1-2-1.52c-2-6.84-3.83-13.87-5.3-20.9a2.13,2.13,0,1,1,4.16-.87c1.45,6.91,3.21,13.82,5.22,20.55a2.12,2.12,0,0,1-1.43,2.65A2.15,2.15,0,0,1,27.77,903.68Zm494.91-48.25h-.21a2.12,2.12,0,0,1-1.91-2.32c.68-7,1.06-14.13,1.15-21.18A2.13,2.13,0,0,1,526,832c-.08,7.17-.48,14.41-1.17,21.54A2.12,2.12,0,0,1,522.68,855.43ZM18.07,853.34A2.13,2.13,0,0,1,16,851.41c-.64-7.15-1-14.4-1-21.55A2.12,2.12,0,0,1,17,827.72h0a2.13,2.13,0,0,1,2.13,2.11c0,7,.38,14.17,1,21.19a2.12,2.12,0,0,1-1.93,2.31Zm504.34-49.17a2.13,2.13,0,0,1-2.11-1.9c-.75-7-1.8-14-3.13-21l0-.27a2.12,2.12,0,1,1,4.17-.81l.06.28c1.35,7,2.42,14.23,3.18,21.33a2.13,2.13,0,0,1-1.89,2.35ZM18.66,802.06h-.25a2.13,2.13,0,0,1-1.87-2.36c.81-7.11,1.94-14.28,3.35-21.31a2.13,2.13,0,0,1,4.17.84c-1.39,6.91-2.49,14-3.29,21A2.14,2.14,0,0,1,18.66,802.06Zm493.16-48.33a2.14,2.14,0,0,1-2-1.49c-2.13-6.72-4.58-13.42-7.27-19.92a2.13,2.13,0,1,1,3.93-1.62c2.74,6.61,5.23,13.42,7.4,20.25a2.13,2.13,0,0,1-1.38,2.68A2.1,2.1,0,0,1,511.82,753.73ZM29.61,752a2.16,2.16,0,0,1-.66-.1,2.14,2.14,0,0,1-1.36-2.69c2.24-6.8,4.79-13.59,7.59-20.19a2.13,2.13,0,1,1,3.92,1.66c-2.76,6.49-5.27,13.17-7.46,19.86A2.13,2.13,0,0,1,29.61,752Zm461.8-45.26a2.11,2.11,0,0,1-1.85-1.09c-3.45-6.13-7.2-12.2-11.16-18a2.13,2.13,0,0,1,3.52-2.39c4,5.93,7.84,12.1,11.35,18.34a2.13,2.13,0,0,1-1.86,3.17Zm-441-1.58a2.16,2.16,0,0,1-1.06-.28,2.13,2.13,0,0,1-.79-2.9c3.56-6.22,7.42-12.36,11.48-18.26a2.13,2.13,0,1,1,3.51,2.41c-4,5.8-7.8,11.85-11.29,18A2.13,2.13,0,0,1,50.45,705.13Zm411.46-40.31a2.1,2.1,0,0,1-1.6-.74c-4.62-5.31-9.52-10.5-14.58-15.41a2.13,2.13,0,0,1,3-3c5.14,5,10.12,10.27,14.82,15.67a2.14,2.14,0,0,1-1.61,3.53Zm-381.67-1.4a2.14,2.14,0,0,1-1.6-3.54c4.73-5.38,9.75-10.62,14.91-15.58a2.13,2.13,0,1,1,3,3.06c-5.08,4.88-10,10-14.66,15.33A2.13,2.13,0,0,1,80.24,663.42Zm344.32-33.71a2.1,2.1,0,0,1-1.29-.44c-5.59-4.28-11.44-8.38-17.37-12.18a2.13,2.13,0,0,1,2.3-3.58c6,3.86,12,8,17.66,12.38a2.13,2.13,0,0,1-1.3,3.82Zm-306.77-1.17a2.13,2.13,0,0,1-1.29-3.83c5.72-4.32,11.68-8.45,17.74-12.27a2.13,2.13,0,0,1,2.27,3.61c-5.95,3.75-11.82,7.81-17.44,12.05A2.09,2.09,0,0,1,117.79,628.54Zm263.14-25.75a2.13,2.13,0,0,1-.92-.21c-6.34-3.08-12.89-5.92-19.46-8.45a2.13,2.13,0,0,1,1.53-4c6.68,2.58,13.34,5.47,19.78,8.6a2.13,2.13,0,0,1-.93,4ZM161.61,602a2.13,2.13,0,0,1-.92-4.05c6.47-3.07,13.15-5.9,19.86-8.42a2.13,2.13,0,0,1,1.5,4c-6.6,2.47-13.17,5.25-19.53,8.27A2.12,2.12,0,0,1,161.61,602Zm171.18-16.77a2.41,2.41,0,0,1-.53-.07c-6.83-1.74-13.81-3.2-20.76-4.35a2.13,2.13,0,0,1,.7-4.2c7.06,1.17,14.17,2.66,21.11,4.42a2.13,2.13,0,0,1-.52,4.2Zm-122.89-.4a2.13,2.13,0,0,1-.5-4.19c4.22-1,8.55-2,12.85-2.81,2.74-.53,5.53-1,8.29-1.45a2.13,2.13,0,0,1,.67,4.2c-2.72.43-5.46.91-8.16,1.43-4.23.81-8.48,1.74-12.64,2.76A2.22,2.22,0,0,1,209.9,584.78Zm72.16-7.12H282c-3.73-.16-7.51-.25-11.23-.25-3.31,0-6.67.07-10,.2a2.13,2.13,0,1,1-.17-4.25c3.37-.14,6.78-.2,10.15-.2,3.79,0,7.63.08,11.42.25a2.13,2.13,0,0,1-.09,4.26Z"/><path class="cls-1" d="M1049.36,890.49l-3.68.22a2.13,2.13,0,0,1-.26-4.25h0c7-.39,14-1,21-1.68a2.13,2.13,0,0,1,.44,4.24C1061,889.62,1055.16,890.11,1049.36,890.49Zm-33.19.91H1016c-7-.07-14.17-.31-21.19-.72a2.12,2.12,0,0,1-2-2.24,2.14,2.14,0,0,1,2.25-2c7,.41,14,.65,21,.72a2.13,2.13,0,0,1,.12,4.25ZM1096,885a2.13,2.13,0,0,1-.49-4.22c6.88-1.18,13.82-2.53,20.62-4a2.13,2.13,0,0,1,.91,4.16c-6.86,1.5-13.86,2.87-20.82,4.05A1.46,1.46,0,0,1,1096,885Zm-130.37,3a1.79,1.79,0,0,1-.4,0c-7-.88-14-1.93-21-3.14a2.13,2.13,0,0,1,.73-4.2c6.86,1.2,13.85,2.25,20.77,3.12a2.13,2.13,0,0,1-.12,4.23Zm179.72-14.31a2.12,2.12,0,0,1-.73-4.16c6.69-1.95,13.43-4.08,20-6.34a2.13,2.13,0,1,1,1.39,4c-6.66,2.28-13.46,4.43-20.22,6.39A1.93,1.93,0,0,1,1145.37,873.68ZM915.81,878.8a1.76,1.76,0,0,1-.64-.06c-6.84-1.67-13.74-3.53-20.51-5.54a2.13,2.13,0,1,1,1.21-4.08c6.7,2,13.53,3.83,20.31,5.49a2.13,2.13,0,0,1-.37,4.19Zm277.29-22a2.12,2.12,0,0,1-1-4.08c6.43-2.7,12.88-5.6,19.17-8.6a2.13,2.13,0,1,1,1.83,3.84c-6.35,3-12.86,5.95-19.35,8.68A2.16,2.16,0,0,1,1193.1,856.8Zm-325.76,7.14a2.07,2.07,0,0,1-.88-.13c-6.6-2.45-13.24-5.09-19.73-7.85A2.13,2.13,0,0,1,848.4,852c6.43,2.74,13,5.36,19.54,7.78a2.13,2.13,0,0,1-.6,4.12Zm371.21-29.37a2.13,2.13,0,0,1-1.18-4c6.06-3.41,12.12-7,18-10.71a2.13,2.13,0,0,1,2.26,3.61c-6,3.73-12.08,7.37-18.2,10.81A2.09,2.09,0,0,1,1238.55,834.57ZM820.9,843.64a2.13,2.13,0,0,1-1.09-.23c-6.29-3.18-12.58-6.56-18.7-10a2.13,2.13,0,1,1,2.1-3.7c6.07,3.45,12.3,6.79,18.52,10a2.13,2.13,0,0,1-.83,4Zm460.23-36.34a2.17,2.17,0,0,1-1.87-.88,2.13,2.13,0,0,1,.48-3c5.64-4.09,11.25-8.36,16.69-12.71a2.13,2.13,0,1,1,2.66,3.32c-5.49,4.39-11.16,8.71-16.85,12.83A2.16,2.16,0,0,1,1281.13,807.3Zm-504,10.9a2.15,2.15,0,0,1-1.31-.35c-5.88-3.88-11.74-8-17.43-12.1a2.13,2.13,0,1,1,2.51-3.43c5.63,4.1,11.44,8.14,17.27,12a2.13,2.13,0,0,1-1,3.9Zm543.23-42.88a2.12,2.12,0,0,1-1.57-3.69c5.14-4.71,10.23-9.6,15.14-14.54a2.13,2.13,0,0,1,3,3c-5,5-10.1,9.93-15.29,14.68A2.11,2.11,0,0,1,1320.33,775.32ZM736.48,788a2.18,2.18,0,0,1-1.51-.49c-5.39-4.52-10.76-9.22-15.93-14a2.13,2.13,0,1,1,2.88-3.13c5.13,4.72,10.44,9.38,15.78,13.85a2.13,2.13,0,0,1-1.22,3.76Zm619.19-48.88a2.06,2.06,0,0,1-1.53-.52,2.11,2.11,0,0,1-.21-3c4.57-5.26,9.08-10.7,13.4-16.17a2.13,2.13,0,1,1,3.34,2.64c-4.36,5.52-8.91,11-13.53,16.32A2.13,2.13,0,0,1,1355.67,739.08ZM699.56,753.33a2.1,2.1,0,0,1-1.68-.66c-4.85-5.1-9.64-10.38-14.24-15.69a2.13,2.13,0,1,1,3.21-2.79c4.56,5.27,9.31,10.5,14.11,15.55a2.13,2.13,0,0,1-1.4,3.59Zm687.12-54.28a2.06,2.06,0,0,1-1.34-.37,2.13,2.13,0,0,1-.55-3c4-5.74,7.82-11.66,11.5-17.59a2.13,2.13,0,0,1,3.61,2.25c-3.7,6-7.61,12-11.6,17.76A2.12,2.12,0,0,1,1386.68,699.05ZM666.82,714.74a2.13,2.13,0,0,1-1.84-.84c-4.23-5.61-8.39-11.39-12.35-17.2a2.13,2.13,0,1,1,3.52-2.4c3.92,5.75,8,11.48,12.23,17a2.13,2.13,0,0,1-.42,3A2,2,0,0,1,666.82,714.74Zm746.15-59a2.12,2.12,0,0,1-2-3.12c3.28-6.17,6.45-12.49,9.43-18.79a2.13,2.13,0,1,1,3.85,1.82c-3,6.36-6.21,12.74-9.52,19A2.1,2.1,0,0,1,1413,655.75Zm-774.26,17a2.14,2.14,0,0,1-2-1c-3.56-6.06-7-12.28-10.3-18.49a2.13,2.13,0,1,1,3.77-2c3.24,6.15,6.67,12.31,10.2,18.31a2.13,2.13,0,0,1-.76,2.91A2.15,2.15,0,0,1,638.71,672.7Zm795.46-63a2.11,2.11,0,0,1-.92-.14,2.13,2.13,0,0,1-1.2-2.76c2.56-6.5,5-13.15,7.22-19.76a2.13,2.13,0,0,1,4,1.37c-2.26,6.67-4.72,13.38-7.3,19.95A2.11,2.11,0,0,1,1434.17,609.73Zm-818.57,18a2.11,2.11,0,0,1-2.08-1.26c-2.85-6.43-5.59-13-8.13-19.59a2.13,2.13,0,0,1,4-1.54c2.52,6.51,5.22,13,8,19.41a2.12,2.12,0,0,1-1.09,2.8A1.86,1.86,0,0,1,615.6,627.7ZM1450,561.57a2.32,2.32,0,0,1-.69-.07,2.13,2.13,0,0,1-1.51-2.6c1.8-6.76,3.45-13.65,4.91-20.47a2.13,2.13,0,1,1,4.17.89c-1.48,6.89-3.15,13.85-5,20.67A2.14,2.14,0,0,1,1450,561.57Zm-852.2,18.74a2.13,2.13,0,0,1-2.16-1.49c-2.1-6.72-4.06-13.58-5.83-20.39a2.13,2.13,0,1,1,4.12-1.07c1.76,6.75,3.7,13.54,5.77,20.19a2.14,2.14,0,0,1-1.4,2.67A2.1,2.1,0,0,1,597.78,580.31Zm862.37-68.39a2.26,2.26,0,0,1-.45,0,2.13,2.13,0,0,1-1.8-2.41c1-6.9,1.85-13.91,2.53-20.85a2.12,2.12,0,1,1,4.23.41c-.68,7-1.53,14.09-2.55,21.05A2.12,2.12,0,0,1,1460.15,511.92ZM585.5,531.19a2.12,2.12,0,0,1-2.22-1.72c-1.32-6.91-2.49-14-3.48-20.93A2.13,2.13,0,0,1,584,508c1,6.91,2.14,13.88,3.44,20.72a2.13,2.13,0,0,1-1.69,2.49Zm879-69.71h-.2a2.12,2.12,0,0,1-2.06-2.19c.2-7,.24-14,.12-21a2.13,2.13,0,1,1,4.25-.08c.13,7,.09,14.18-.12,21.21A2.12,2.12,0,0,1,1464.54,461.48ZM578.85,481a2.12,2.12,0,0,1-2.26-2c-.13-1.65-.25-3.31-.35-5-.35-5.37-.61-10.83-.76-16.2a2.13,2.13,0,0,1,4.26-.13c.15,5.33.4,10.73.74,16.06.11,1.64.23,3.28.35,4.92a2.14,2.14,0,0,1-2,2.29Zm884.3-70.12a2.13,2.13,0,0,1-2.26-1.95c-.58-6.93-1.34-14-2.26-20.89l-.09-.67a2.13,2.13,0,1,1,4.22-.56l.09.68c.92,7,1.69,14.08,2.28,21.08a2.13,2.13,0,0,1-1.94,2.3Zm-885.26,19.5h-.22a2.13,2.13,0,0,1-2-2.21c.26-7,.71-14.16,1.31-21.17a2.13,2.13,0,0,1,4.24.37c-.6,6.94-1,14-1.3,21A2.13,2.13,0,0,1,577.89,430.37Zm878-70.32a2.13,2.13,0,0,1-2.23-1.7c-1.37-6.84-2.92-13.73-4.62-20.49a2.13,2.13,0,0,1,4.13-1c1.71,6.82,3.28,13.78,4.67,20.68a2.14,2.14,0,0,1-1.67,2.51ZM582.73,380a1.86,1.86,0,0,1-.47,0,2.12,2.12,0,0,1-1.78-2.42c1.08-7,2.34-14,3.75-20.93a2.13,2.13,0,1,1,4.17.85c-1.4,6.85-2.64,13.82-3.71,20.73A2.15,2.15,0,0,1,582.73,380Zm860.42-68.9a2.13,2.13,0,0,1-2.16-1.48c-2.14-6.63-4.47-13.3-6.93-19.82a2.13,2.13,0,1,1,4-1.5c2.48,6.58,4.84,13.32,7,20a2.13,2.13,0,0,1-1.37,2.68A3.18,3.18,0,0,1,1443.15,311.07Zm-849.81,19.3a2.18,2.18,0,0,1-.71-.08,2.12,2.12,0,0,1-1.48-2.61c1.87-6.8,3.93-13.64,6.12-20.35a2.13,2.13,0,1,1,4.05,1.33c-2.18,6.64-4.22,13.42-6.07,20.15A2.13,2.13,0,0,1,593.34,330.37Zm831.52-66.51a2.15,2.15,0,0,1-2.08-1.25c-2.89-6.34-6-12.7-9.16-18.9a2.13,2.13,0,0,1,3.79-2c3.21,6.26,6.33,12.68,9.24,19.09a2.13,2.13,0,0,1-1.05,2.82A2.19,2.19,0,0,1,1424.86,263.86Zm-815.3,18.48a2.19,2.19,0,0,1-.93-.15,2.14,2.14,0,0,1-1.18-2.77c2.64-6.53,5.47-13.09,8.41-19.5a2.13,2.13,0,0,1,3.87,1.78C616.81,268,614,274.54,611.4,281A2.1,2.1,0,0,1,609.56,282.34Zm791.72-63.25a2.11,2.11,0,0,1-2-1c-3.59-5.95-7.38-11.91-11.25-17.69a2.13,2.13,0,0,1,3.54-2.37c3.91,5.84,7.73,11.85,11.35,17.87a2.12,2.12,0,0,1-1.68,3.22ZM631.16,236.5a2.08,2.08,0,0,1-1.15-.25,2.14,2.14,0,0,1-.85-2.89c3.36-6.18,6.91-12.38,10.56-18.4a2.13,2.13,0,1,1,3.64,2.2c-3.61,6-7.13,12.11-10.46,18.23A2.11,2.11,0,0,1,631.16,236.5Zm741.59-59.16a2.15,2.15,0,0,1-1.83-.83c-4.25-5.52-8.7-11-13.2-16.31a2.12,2.12,0,1,1,3.24-2.75c4.55,5.35,9,10.89,13.33,16.46a2.13,2.13,0,0,1-.38,3A2.16,2.16,0,0,1,1372.75,177.34ZM657.83,193.43a2.12,2.12,0,0,1-1.88-3.34c4-5.77,8.27-11.51,12.58-17.08a2.12,2.12,0,0,1,3.36,2.6c-4.26,5.52-8.45,11.21-12.46,16.92A2.1,2.1,0,0,1,657.83,193.43Zm681.79-54.34a2.15,2.15,0,0,1-1.67-.64c-4.85-5-9.89-9.95-15-14.72a2.13,2.13,0,1,1,2.91-3.1c5.14,4.81,10.22,9.8,15.13,14.85a2.14,2.14,0,0,1,0,3A2.11,2.11,0,0,1,1339.62,139.09ZM689.19,153.67a2.06,2.06,0,0,1-1.55-.53,2.12,2.12,0,0,1-.18-3c4.66-5.27,9.52-10.5,14.42-15.54a2.13,2.13,0,1,1,3,3c-4.86,5-9.66,10.17-14.28,15.39A2.1,2.1,0,0,1,689.19,153.67Zm613.16-48.84a2.12,2.12,0,0,1-1.49-.48c-5.39-4.41-11-8.76-16.56-12.92a2.13,2.13,0,1,1,2.54-3.42c5.65,4.2,11.28,8.59,16.72,13a2.13,2.13,0,0,1-1.21,3.77ZM724.84,117.74a2.12,2.12,0,0,1-1.56-3.7c5.23-4.71,10.64-9.34,16.09-13.79a2.12,2.12,0,0,1,2.69,3.29c-5.39,4.41-10.75,9-15.93,13.66A2.15,2.15,0,0,1,724.84,117.74ZM1261.42,75a2.1,2.1,0,0,1-1.29-.34c-5.86-3.78-11.89-7.47-17.93-11a2.13,2.13,0,1,1,2.14-3.68c6.09,3.53,12.18,7.26,18.09,11.08a2.13,2.13,0,0,1-1,3.91ZM764.33,86.11a2.09,2.09,0,0,1-1.87-.89,2.13,2.13,0,0,1,.5-3c5.73-4.07,11.63-8.06,17.54-11.85A2.13,2.13,0,1,1,782.8,74c-5.86,3.76-11.7,7.71-17.37,11.74A2.1,2.1,0,0,1,764.33,86.11Zm453-36.1a2.06,2.06,0,0,1-1.08-.22c-6.26-3.09-12.67-6.07-19.07-8.86a2.13,2.13,0,1,1,1.71-3.9c6.45,2.81,12.93,5.83,19.24,8.95a2.13,2.13,0,0,1-.8,4Zm-410.21,9.2a2.13,2.13,0,0,1-1.17-4c6.17-3.39,12.5-6.69,18.82-9.78a2.13,2.13,0,1,1,1.87,3.82C820.41,52.32,814.14,55.59,808,59A2.11,2.11,0,0,1,807.15,59.21Zm363.57-29a2.16,2.16,0,0,1-.86-.12c-6.57-2.36-13.29-4.59-20-6.63a2.13,2.13,0,0,1,1.24-4.07c6.74,2.06,13.52,4.31,20.16,6.7a2.12,2.12,0,0,1-.58,4.12Zm-317.9,7.19a2.13,2.13,0,0,1-.94-4.1c6.51-2.66,13.18-5.21,19.82-7.56a2.13,2.13,0,0,1,1.42,4c-6.58,2.33-13.18,4.85-19.63,7.49A2.26,2.26,0,0,1,852.82,37.37ZM1122.1,15.82a2.2,2.2,0,0,1-.62-.05c-6.81-1.59-13.74-3-20.61-4.3a2.13,2.13,0,1,1,.77-4.19c6.93,1.28,13.93,2.74,20.81,4.34a2.13,2.13,0,0,1-.35,4.2ZM900.7,20.91a2.13,2.13,0,0,1-.71-4.17c6.77-1.9,13.68-3.67,20.55-5.25a2.13,2.13,0,1,1,1,4.15c-6.8,1.56-13.64,3.31-20.35,5.2A2.13,2.13,0,0,1,900.7,20.91ZM1072.17,7.14a1.61,1.61,0,0,1-.38,0c-6.93-.8-14-1.43-20.92-1.9a2.13,2.13,0,0,1,.28-4.25c7,.47,14.13,1.12,21.12,1.92a2.13,2.13,0,0,1-.1,4.24ZM950.14,10a2.13,2.13,0,0,1-.47-4.23c4.33-.7,8.74-1.34,13.1-1.92,2.63-.34,5.29-.67,7.91-1a2.13,2.13,0,0,1,.49,4.23c-2.6.29-5.24.62-7.84,1-4.32.57-8.69,1.21-13,1.91Zm71.48-5.77h-.14c-7,0-14,.17-21,.5a2.13,2.13,0,0,1-.24-4.25h0c7-.34,14.17-.51,21.2-.51a2.13,2.13,0,0,1,.14,4.25Z"/><polygon class="cls-2" points="1091.53 264.61 1091.53 996.75 1089.61 996.75 1034.18 942.81 978.75 996.75 972.97 996.75 917.54 942.81 862.1 996.75 856.41 996.75 801.07 942.91 745.74 996.75 740.07 996.75 684.68 942.85 629.28 996.75 623.44 996.75 568.04 942.85 512.64 996.75 506.87 996.75 451.58 942.95 396.29 996.75 392.63 996.75 392.63 61.13 888.05 61.13 1091.53 264.61"/><polygon class="cls-1" points="1091.53 264.61 888.05 264.61 888.05 61.13 1091.53 264.61"/><path class="cls-3" d="M580.71,645.49V618.11H506.82q-14,0-21-6.33t-7-17.22a16.6,16.6,0,0,1,1-5.67,29.09,29.09,0,0,1,3.09-6c1.37-2.11,2.8-4.14,4.27-6.11s3.29-4.36,5.45-7.21l78-104.37q7.66-10.31,12.59-14.94a16.7,16.7,0,0,1,11.85-4.64q22.38,0,22.38,25.62V585.13h6.33q11.32,0,18.18,3.1t6.84,13.54q0,8.54-5.59,12.44t-16.78,3.9h-9v27.38q0,11.34-5,16.85t-13.39,5.52a17.07,17.07,0,0,1-13.33-5.66Q580.72,656.53,580.71,645.49Zm-63.29-60.36h63.29V499.61Z"/><path class="cls-3" d="M819.19,558.34q0,24.15-3,41.52a96.55,96.55,0,0,1-10.89,31.5q-10,17.37-25.91,26.79A70.37,70.37,0,0,1,704,654.91q-17.75-12.66-26.72-35a130.27,130.27,0,0,1-6.7-27,225,225,0,0,1-2.13-32,307.61,307.61,0,0,1,2.35-40,132.53,132.53,0,0,1,7.36-30.62q8.69-21.19,25.25-32.31t39.52-11.12a73.86,73.86,0,0,1,27.53,4.93,62.84,62.84,0,0,1,21.71,14.43A82.61,82.61,0,0,1,808,489.6Q819.19,513.89,819.19,558.34Zm-40.34-2.94q0-26.94-3.24-44.09T764.72,485.4q-7.65-8.75-21.2-8.76-19.42,0-27,19.58t-7.58,60.36q0,27.67,3.24,45.34t10.89,26.71q7.65,9.06,20.76,9.06,13.54,0,21.2-9.42t10.74-26.94Q778.85,583.81,778.85,555.4Z"/><path class="cls-3" d="M939,645.49V618.11h-73.9q-14,0-21-6.33t-7-17.22a16.6,16.6,0,0,1,1-5.67,28.61,28.61,0,0,1,3.09-6c1.37-2.11,2.79-4.14,4.27-6.11s3.28-4.36,5.44-7.21l78-104.37q7.65-10.31,12.59-14.94a16.67,16.67,0,0,1,11.85-4.64q22.37,0,22.37,25.62V585.13h6.33q11.34,0,18.18,3.1t6.85,13.54q0,8.54-5.6,12.44t-16.78,3.9h-9v27.38q0,11.34-5,16.85t-13.4,5.52a17.05,17.05,0,0,1-13.32-5.66Q939,656.53,939,645.49Zm-63.3-60.36H939V499.61Z"/><path class="cls-4" d="M736.64,1211.66h0a24.64,24.64,0,0,1-34.86,0L552.11,1062l-19-19A122.91,122.91,0,0,0,568,1008.1l168.69,168.7A24.64,24.64,0,0,1,736.64,1211.66Z"/><path class="cls-5" d="M575.53,1015.68l39,39a122.71,122.71,0,0,1-34.85,34.86h0l-20-20-19-19A122.78,122.78,0,0,0,575.53,1015.68Z"/><path class="cls-6" d="M614.4,934.46a148.21,148.21,0,0,0-51-105.81A148.69,148.69,0,0,0,317.17,940.87a150.58,150.58,0,0,0,.94,16.81,147.57,147.57,0,0,0,14.23,48.68h0a149.16,149.16,0,0,0,45.36,54.24q4.67,3.45,9.6,6.53A148.79,148.79,0,0,0,552.11,1062h0A149.58,149.58,0,0,0,587,1027.13h0a147.92,147.92,0,0,0,27.56-86.25Q614.53,937.65,614.4,934.46ZM465.85,1063.1a122.23,122.23,0,1,1,0-244.46,123.39,123.39,0,0,1,15.95,1,122.25,122.25,0,0,1,106.29,121.2c0,1.86-.05,3.71-.13,5.55a122.24,122.24,0,0,1-65.41,102.76,120.9,120.9,0,0,1-24.58,9.65A122.34,122.34,0,0,1,465.85,1063.1Z"/><path class="cls-7" d="M373.29,954.31a11.41,11.41,0,0,1-11.41-11.41,106,106,0,0,1,106-106,11.42,11.42,0,0,1,0,22.83,83.17,83.17,0,0,0-83.17,83.17A11.41,11.41,0,0,1,373.29,954.31Z"/></g></g></svg>